PathFileType	4	(X/Y/Z)	D:\TRACE\v60_Jaco2_6-2-23\JustArmDRS_Motion3_2-platform.trc
DataRate	CameraRate	NumFrames	NumMarkers	Units	OrigDataRate	OrigDataStartFrame	OrigNumFrames
100.00	100.00	      30	5	mm	100.00	3501	      7000
Frame#	Time	Left_Front			Right_Front			Left_Aft			Right_Aft			Post			
		X1	Y1	Z1	X2	Y2	Z2	X3	Y3	Z3	X4	Y4	Z4	X5	Y5	Z5	

3501	35.000	-790.32446	42.65296	-642.27924	780.19641	40.66404	-619.44189	-721.81824	-11.60236	490.34555	692.70697	-18.53674	595.82574	4.77327	1354.35071	-890.46692	
3502	35.010	-791.00616	42.66300	-642.43384	779.46155	40.55710	-619.56409	-722.62561	-11.54121	490.32700	692.31049	-18.40480	595.78827	4.26480	1354.33765	-890.52374	
3503	35.020	-792.02399	42.63312	-642.57538	778.76324	40.48891	-619.56305	-723.16345	-11.51850	490.32047	691.64532	-18.37989	595.76465	3.25951	1354.27856	-890.67480	
3504	35.030	-792.62390	42.81318	-642.51514	778.28931	40.49099	-619.49835	-723.84723	-11.58172	490.24503	690.87927	-18.30500	595.84131	2.15243	1354.30017	-890.61987	
3505	35.040	-793.39142	42.56247	-642.43994	777.44580	40.47050	-619.48944	-724.72479	-11.43405	490.28989	690.04865	-18.37477	595.80737	1.80945	1354.20764	-890.89551	
3506	35.050	-793.87073	42.49016	-642.41272	776.63220	40.40416	-619.56512	-725.44116	-11.40107	490.24472	689.22772	-18.37214	595.68341	1.41993	1354.29138	-890.89612	
3507	35.060	-794.51044	42.26902	-642.55359	775.94421	40.30265	-619.64606	-726.10388	-11.34632	490.15945	688.75592	-18.17667	595.64569	0.36931	1354.15186	-890.97101	
3508	35.070	-795.60345	42.17305	-642.68597	775.34412	40.17993	-619.61908	-726.60541	-11.36769	490.26901	687.87506	-18.26665	595.69769	-0.48762	1353.84717	-891.27002	
3509	35.080	-796.14392	42.10741	-642.57654	774.65192	40.04159	-619.69629	-727.50848	-11.12787	490.08633	687.37677	-18.18303	595.72211	-1.03779	1353.61523	-891.57947	
3510	35.090	-796.85870	41.86727	-642.64490	773.86786	39.96663	-619.77039	-728.19879	-11.00042	490.15622	686.53394	-17.95431	595.62775	-1.57293	1353.38403	-891.72974	
3511	35.100	-797.12799	41.62694	-642.68884	773.19330	39.82247	-619.76520	-728.77209	-11.02562	490.16653	685.79095	-17.72866	595.60803	-2.38023	1353.19409	-892.05212	
3512	35.110	-797.86938	41.43828	-642.77222	772.43646	39.59864	-619.95197	-729.60291	-10.82493	490.03107	685.21350	-17.64743	595.55078	-3.20132	1352.87903	-892.52936	
3513	35.120	-798.77295	41.38451	-642.88623	771.81793	39.44269	-620.02930	-730.19281	-10.65339	489.98074	684.71649	-17.52936	595.46832	-3.79108	1352.60095	-892.97162	
3514	35.130	-799.68829	41.31330	-642.95587	771.21985	39.25731	-620.11804	-730.67419	-10.61868	489.92477	683.89014	-17.26129	595.35120	-4.32367	1352.37927	-893.59650	
3515	35.140	-800.16254	41.06504	-643.02472	770.58386	39.04557	-620.19934	-731.30676	-10.50827	489.91718	683.39313	-17.13111	595.43274	-5.03035	1352.25977	-894.17010	
3516	35.150	-800.25562	40.77455	-642.72577	769.96143	38.88181	-620.18835	-732.17145	-10.27516	489.72269	682.74866	-16.89762	595.42487	-5.44222	1351.96313	-894.82813	
3517	35.160	-800.82373	40.65109	-642.82343	769.31317	38.66975	-620.20087	-732.70905	-10.22134	489.62616	682.18933	-16.73208	595.33820	-6.07962	1351.57922	-895.42236	
3518	35.170	-801.67010	40.24041	-643.16425	768.92554	38.60251	-620.15259	-733.11804	-10.09317	489.66296	681.32520	-16.47210	595.49591	-6.73631	1351.26465	-895.96655	
3519	35.180	-802.56836	40.29362	-643.32727	768.08167	38.20797	-620.42499	-733.88501	-9.90405	489.67566	680.95691	-16.17722	595.25934	-7.46268	1351.04932	-896.39362	
3520	35.190	-803.29907	40.34200	-643.50159	767.58521	37.97038	-620.46967	-734.44574	-9.67993	489.53723	680.51855	-16.05627	595.03729	-7.88915	1350.85938	-896.78107	
3521	35.200	-803.69141	40.02365	-643.36438	766.90985	37.76289	-620.58795	-735.24780	-9.30375	489.47574	679.80664	-16.35260	594.52814	-8.43418	1350.28308	-897.34320	
3522	35.210	-804.18146	39.45689	-643.61169	766.55591	37.47332	-620.64746	-735.34503	-9.45195	489.48608	679.19122	-16.03902	594.58331	-8.81940	1349.83301	-897.80487	
3523	35.220	-804.79016	39.31424	-643.52997	766.01697	37.09996	-620.74335	-736.00543	-9.18001	489.29886	678.89014	-15.32352	595.10382	-9.16666	1349.34619	-898.39319	
3524	35.230	-805.13062	39.23990	-643.36542	765.58508	36.77383	-620.82825	-736.50159	-8.88194	489.29208	678.31653	-15.13924	595.02301	-9.78989	1349.01929	-898.95508	
3525	35.240	-805.67572	38.72168	-643.70068	765.14514	36.42970	-620.85303	-737.16797	-8.49536	489.27695	678.10504	-14.88894	594.94507	-10.34689	1348.56653	-899.83130	
3526	35.250	-806.27118	38.04805	-644.00092	764.53986	36.10641	-620.93921	-737.58691	-8.39184	489.20819	677.44794	-14.55142	594.81256	-10.77199	1348.16101	-900.55011	
3527	35.260	-806.71124	37.97094	-644.10016	764.00562	35.81123	-621.07349	-737.92340	-8.16128	489.11404	676.79913	-14.22561	594.67743	-11.40973	1347.78210	-901.34973	
3528	35.270	-807.14288	37.85946	-644.10370	763.60999	35.51609	-621.17645	-738.41260	-8.01254	489.00531	676.53369	-14.11918	594.60468	-11.89088	1347.30591	-902.24445	
3529	35.280	-807.27448	37.42274	-643.87097	763.16492	35.22394	-621.29156	-738.77765	-7.80016	488.99152	676.25958	-13.89129	594.54962	-12.10664	1347.06763	-902.94586	
3530	35.290	-807.87079	36.86194	-644.23444	762.98193	34.99275	-621.36487	-739.23419	-7.53293	488.86453	675.72314	-13.61008	594.49554	-12.64656	1346.62854	-903.93549	
